# xmcd CD database file
#
# Track frame offsets:
#	150
#	12127
#	23335
#	37469
#	52180
#	63111
#	86476
#	99071
#	111964
#	133188
#	151968
#	168693
#	185756
#	201801
#	236240
#
# Disc length: 3451 seconds
#
# Revision: 0
# Processed by: cddbd v1.5.2PL0 Copyright (c) Steve Scherf et al.
# Submitted via: CDex 1.51
#
DISCID=ca0d790f
DTITLE=Ella Fitzgerald - JAZZ BASICS
DYEAR=1900
DGENRE=Jazz
TTITLE0=A-Tisket, A-Tasket
TTITLE1=Flying Home
TTITLE2=Oh, Lady Be Good
TTITLE3=How High The Moon
TTITLE4=Goody, Goody
TTITLE5=(Mr. Paganini) You'll Have To Swing It, Pt. 1 and 2
TTITLE6=Blue Love
TTITLE7=Lullaby Of Birdland
TTITLE8=April In Paris
TTITLE9=Air Mail Special
TTITLE10=Moonlight In Vermont
TTITLE11=Can't We Be Friends
TTITLE12=Just A-Sittin' And A-Rockin'
TTITLE13=These Foolish Things
TTITLE14=Summertime
EXTD=
EXTT0=
EXTT1=
EXTT2=
EXTT3=
EXTT4=
EXTT5=
EXTT6=
EXTT7=
EXTT8=
EXTT9=
EXTT10=
EXTT11=
EXTT12=
EXTT13=
EXTT14=
PLAYORDER=
